<svg width="1440" height="1024" viewBox="0 0 1440 1024" fill="none" xmlns="http://www.w3.org/2000/svg">
<path d="M1440 0H0V1024H1440V0Z" fill="#E5E5E5"/>
<path d="M1440 0H0V1024H1440V0Z" fill="white"/>
<path d="M201.68 122.19L198.39 122.54C196.43 122.75 195.38 131.57 197.97 131.29L218.48 129.12C218.9 129.05 219.39 128.56 219.46 128.14C220.44 118.55 221 121.77 215.33 120.51C215.05 120.16 214.56 119.18 213.93 116.94L203.29 77.25C202.8 75.5 198.04 76.9 196.15 77.04C195.94 77.11 195.38 77.53 195.31 77.74L175.92 120.16C175.43 121.21 174.24 123.94 173.19 124.92C172.98 124.99 172.21 125.34 169.48 125.97C167.8 126.39 166.75 134.58 169.27 134.3L186.77 132.48C187.19 132.41 187.68 131.92 187.75 131.43C188.59 123.45 189.92 124.22 184.04 123.87L184.46 122.96L187.75 115.61L199.93 114.35C200.56 116.87 201.26 119.53 201.75 122.19H201.68ZM215.26 122.75C215.75 122.82 216.52 122.89 217.71 122.96L217.29 127.02L199.09 128.91L199.51 124.71L202.03 124.43L202.24 124.36C205.11 123.38 204.13 122.05 203.43 119.25C203.01 117.43 202.59 111.83 200.63 112.04L186.84 113.44C186.63 113.51 186.07 113.93 185.93 114.14L182.43 122.05C180.47 126.53 181.59 126.11 186 126.18L185.58 130.31L170.39 131.92L170.81 127.93C173.19 127.3 173.96 127.02 174.38 126.81L174.52 126.67C176.06 125.41 177.18 122.75 177.95 121.07L197.06 79.21L201.33 78.79L211.76 117.57C212.25 119.46 212.88 122.47 215.26 122.75ZM197.55 105.11L192.23 105.67L195.66 98.04L197.55 105.11ZM194.89 94.19C187.61 110.57 185.79 108.61 199.02 107.21C201.89 106.93 197.97 98.04 196.99 94.4C196.64 93.14 195.45 93 194.89 94.19Z" fill="black"/>
</svg>
