<svg width="1440" height="1024" viewBox="0 0 1440 1024" fill="none" xmlns="http://www.w3.org/2000/svg">
<path d="M1440 0H0V1024H1440V0Z" fill="#E5E5E5"/>
<path d="M1440 0H0V1024H1440V0Z" fill="white"/>
<path d="M226.59 165.14C224.723 165.14 223.79 164.627 223.79 163.6V117.4C223.79 116.373 224.723 115.86 226.59 115.86H227.15C229.017 115.86 229.95 116.373 229.95 117.4V138.82H230.23L247.45 116.84C247.777 116.467 248.29 116.21 248.99 116.07C249.737 115.93 250.483 115.86 251.23 115.86H251.93C253.563 115.86 254.38 116.163 254.38 116.77C254.38 117.19 254.147 117.657 253.68 118.17L236.18 140.01L257.39 163.04C257.81 163.507 258.02 163.88 258.02 164.16C258.02 164.813 256.993 165.14 254.94 165.14H254.1C253.353 165.14 252.63 165.093 251.93 165C251.23 164.953 250.67 164.697 250.25 164.23L230.23 141.69H229.95V163.6C229.95 164.627 229.017 165.14 227.15 165.14H226.59Z" fill="black"/>
</svg>
