<svg width="1440" height="1024" viewBox="0 0 1440 1024" fill="none" xmlns="http://www.w3.org/2000/svg">
<rect width="1440" height="1024" fill="#E5E5E5"/>
<path d="M1440 0H0V1024H1440V0Z" fill="white"/>
<path d="M169.272 259.136C169.528 259.072 169.768 259.104 169.992 259.232C170.248 259.36 170.408 259.568 170.472 259.856C170.536 260.112 170.488 260.352 170.328 260.576C170.2 260.8 170.008 260.944 169.752 261.008C169.4 261.072 168.312 261.344 166.488 261.824C164.696 262.304 162.488 262.96 159.864 263.792C157.24 264.624 155.432 265.344 154.44 265.952C153.064 266.784 152.168 266.848 151.752 266.144C151.528 265.792 151.576 265.152 151.896 264.224C152.6 262.176 152.696 260.528 152.184 259.28C151.96 258.704 151.32 258.928 150.264 259.952C149.208 260.944 147.976 262.432 146.568 264.416C145.16 266.368 144.104 267.84 143.4 268.832C142.728 269.824 142.152 270.688 141.672 271.424V271.472C141.544 271.696 141.336 271.824 141.048 271.856C140.792 271.92 140.552 271.888 140.328 271.76C139.912 271.472 139.784 271.088 139.944 270.608H139.896C143.832 258.224 147.304 248.32 150.312 240.896C153.352 233.472 155.864 228.304 157.848 225.392C158.584 224.304 159.272 223.504 159.912 222.992C160.584 222.48 161.16 222.256 161.64 222.32C162.12 222.384 162.536 222.704 162.888 223.28C163.592 224.4 163.592 226.704 162.888 230.192C162.44 232.432 161.736 234.832 160.776 237.392C159.848 239.952 158.664 242.64 157.224 245.456C155.816 248.24 154.056 250.992 151.944 253.712C149.864 256.4 147.624 258.704 145.224 260.624C144.904 261.552 144.408 263.056 143.736 265.136C146.04 262.096 148.152 259.824 150.072 258.32C151.992 256.784 153.304 256.864 154.008 258.56C154.648 260.128 154.664 261.92 154.056 263.936C155.304 263.296 157.224 262.576 159.816 261.776C162.44 260.944 164.6 260.304 166.296 259.856C167.992 259.408 168.984 259.168 169.272 259.136ZM159.432 226.496C156.104 231.392 151.8 241.52 146.52 256.88C149.048 254.384 151.368 251.424 153.48 248C155.592 244.544 157.224 241.312 158.376 238.304C159.56 235.296 160.424 232.464 160.968 229.808C161.576 226.864 161.656 225.024 161.208 224.288C161.112 224.16 160.52 224.896 159.432 226.496Z" fill="black"/>
</svg>
