<svg width="1440" height="1024" viewBox="0 0 1440 1024" fill="none" xmlns="http://www.w3.org/2000/svg">
<rect width="1440" height="1024" fill="#E5E5E5"/>
<path d="M1440 0H0V1024H1440V0Z" fill="white"/>
<path d="M262.608 257.256C262.768 257.032 262.976 256.904 263.232 256.872C263.52 256.808 263.776 256.856 264 257.016C264.224 257.176 264.352 257.384 264.384 257.64C264.448 257.896 264.4 258.136 264.24 258.36C264.24 258.36 264.24 258.376 264.24 258.408C261.712 261.864 260.32 264.12 260.064 265.176C260.32 265.016 260.688 264.808 261.168 264.552C261.648 264.264 262.576 263.608 263.952 262.584C265.36 261.56 266.688 260.44 267.936 259.224C268.16 259.032 268.4 258.952 268.656 258.984C268.944 258.984 269.168 259.096 269.328 259.32C269.648 259.704 269.68 260.104 269.424 260.52C267.632 263.432 266.96 265.048 267.408 265.368C267.824 265.656 268.8 264.776 270.336 262.728C270.848 262.056 271.36 261.32 271.872 260.52C272.032 260.296 272.24 260.168 272.496 260.136C272.784 260.104 273.024 260.168 273.216 260.328C273.44 260.488 273.568 260.712 273.6 261C273.664 261.256 273.616 261.496 273.456 261.72C272.048 263.576 270.8 265 269.712 265.992C268.368 267.272 267.312 267.72 266.544 267.336C265.424 266.76 265.168 265.496 265.776 263.544C260.272 267.8 257.584 268.856 257.712 266.712C257.744 266.04 258.208 264.856 259.104 263.16C260.032 261.432 260.752 260.168 261.264 259.368C261.776 258.536 262.224 257.832 262.608 257.256Z" fill="black"/>
</svg>
