<svg width="1440" height="1024" viewBox="0 0 1440 1024" fill="none" xmlns="http://www.w3.org/2000/svg">
<rect width="1440" height="1024" fill="#E5E5E5"/>
<path d="M1440 0H0V1024H1440V0Z" fill="white"/>
<path d="M269.536 230.144C270.592 230.144 270.336 230.832 268.768 232.208C268.608 232.368 268.224 232.592 267.616 232.88C267.392 233.008 267.152 233.04 266.896 232.976C266.64 232.88 266.448 232.704 266.32 232.448C266.32 232.448 266.304 232.432 266.272 232.4C266.272 232.368 266.272 232.352 266.272 232.352C265.696 232.896 265.328 233.184 265.168 233.216C262.8 234.048 259.472 235.264 255.184 236.864C248.752 239.232 240.192 242.48 229.504 246.608C229.792 257.008 232.48 265.296 237.568 271.472C240.064 274.48 243.008 276.832 246.4 278.528C249.376 280.032 252.416 280.896 255.52 281.12C257.376 281.248 259.056 281.136 260.56 280.784C262.064 280.464 263.232 279.968 264.064 279.296C264.288 279.104 264.528 279.024 264.784 279.056C265.072 279.088 265.296 279.2 265.456 279.392C265.648 279.616 265.728 279.856 265.696 280.112C265.664 280.4 265.536 280.624 265.312 280.784C264.288 281.648 262.896 282.288 261.136 282.704C259.408 283.12 257.488 283.248 255.376 283.088C252.016 282.832 248.736 281.904 245.536 280.304C241.888 278.512 238.736 275.984 236.08 272.72C230.8 266.352 227.968 257.904 227.584 247.376C225.184 248.304 223.04 249.12 221.152 249.824C214.08 269.408 209.6 278.864 207.712 278.192C207.328 278.064 207.072 277.472 206.944 276.416C206.752 275.104 206.4 273.84 205.888 272.624C205.376 271.408 204.688 270.24 203.824 269.12C202.96 268 202.24 267.12 201.664 266.48C201.088 265.872 200.304 265.072 199.312 264.08C197.584 262.384 196.544 261.168 196.192 260.432C195.488 258.896 196.064 257.712 197.92 256.88C198.656 256.496 205.936 253.632 219.76 248.288C220.848 245.024 222.352 240.56 224.272 234.896C211.28 236.048 199.856 238.032 190 240.848C174.96 245.2 167.536 250.752 167.728 257.504C167.76 259.008 168.192 260.576 169.024 262.208C169.152 262.432 169.168 262.672 169.072 262.928C169.008 263.184 168.848 263.376 168.592 263.504C168.336 263.632 168.08 263.664 167.824 263.6C167.568 263.504 167.376 263.328 167.248 263.072C162.928 254.592 167.52 247.584 181.024 242.048C191.616 237.664 206.464 234.576 225.568 232.784C225.856 232.784 226.096 232.88 226.288 233.072C226.512 233.232 226.624 233.44 226.624 233.696C226.656 233.824 226.64 233.952 226.576 234.08C226.576 234.08 226.496 234.304 226.336 234.752C226.208 235.2 226 235.856 225.712 236.72C225.424 237.552 225.104 238.496 224.752 239.552C224.4 240.576 223.968 241.792 223.456 243.2C222.976 244.608 222.496 246.016 222.016 247.424C223.616 246.784 225.456 246.064 227.536 245.264C227.504 243.28 227.568 241.232 227.728 239.12C227.76 238.864 227.872 238.656 228.064 238.496C228.256 238.304 228.48 238.224 228.736 238.256C229.024 238.256 229.248 238.368 229.408 238.592C229.6 238.784 229.696 239.008 229.696 239.264C229.568 241.056 229.504 242.8 229.504 244.496C239.648 240.592 247.984 237.424 254.512 234.992C258.992 233.328 262.336 232.128 264.544 231.392C265.888 230.912 267.008 230.576 267.904 230.384L268.144 230.24L268.096 230.336C268.704 230.208 269.184 230.144 269.536 230.144ZM218.896 250.736C206.16 255.696 199.44 258.336 198.736 258.656C198.064 258.944 197.824 259.264 198.016 259.616C198.24 260.096 199.136 261.12 200.704 262.688C201.056 263.04 201.664 263.6 202.528 264.368C203.392 265.136 204.048 265.76 204.496 266.24C204.976 266.752 205.52 267.408 206.128 268.208C206.768 269.04 207.264 269.936 207.616 270.896C208 271.888 208.272 272.992 208.432 274.208C208.528 274.784 208.992 274.32 209.824 272.816C211.968 268.976 214.608 262.688 217.744 253.952C218.16 252.864 218.544 251.792 218.896 250.736Z" fill="black"/>
</svg>
