<svg width="1440" height="1024" viewBox="0 0 1440 1024" fill="none" xmlns="http://www.w3.org/2000/svg">
<rect width="1440" height="1024" fill="#E5E5E5"/>
<path d="M1440 0H0V1024H1440V0Z" fill="white"/>
<path d="M320.552 250.016C321.064 249.984 321.384 250.24 321.512 250.784C321.576 251.04 321.528 251.28 321.368 251.504C321.24 251.728 321.048 251.872 320.792 251.936C320.312 252.032 319.832 252.368 319.352 252.944C318.872 253.488 318.504 253.984 318.248 254.432C317.992 254.88 317.864 255.136 317.864 255.2C317.736 255.424 317.544 255.584 317.288 255.68C317.032 255.776 316.776 255.776 316.52 255.68C316.296 255.552 316.136 255.36 316.04 255.104C315.944 254.848 315.96 254.592 316.088 254.336C316.184 254.176 316.264 254.032 316.328 253.904C316.392 253.776 316.568 253.472 316.856 252.992C317.176 252.512 317.48 252.112 317.768 251.792C318.088 251.44 318.472 251.088 318.92 250.736C319.4 250.352 319.864 250.112 320.312 250.016C320.376 250.016 320.456 250.016 320.552 250.016ZM315.704 257.12C315.96 257.12 316.168 257.184 316.328 257.312C316.552 257.504 316.664 257.744 316.664 258.032C316.696 258.288 316.632 258.512 316.472 258.704C315.288 260.112 314.536 261.312 314.216 262.304C314.056 262.72 314.008 263.056 314.072 263.312C314.104 263.44 314.184 263.536 314.312 263.6C314.504 263.696 314.808 263.744 315.224 263.744C316.28 263.744 317.928 263.312 320.168 262.448C323.24 261.296 325.432 260.256 326.744 259.328C326.936 259.168 327.16 259.12 327.416 259.184C327.704 259.216 327.928 259.344 328.088 259.568C328.248 259.792 328.296 260.032 328.232 260.288C328.2 260.544 328.072 260.752 327.848 260.912C327.336 261.296 326.392 261.824 325.016 262.496C323.64 263.168 322.248 263.776 320.84 264.32C318.376 265.248 316.504 265.712 315.224 265.712C314.552 265.712 313.96 265.6 313.448 265.376C312.744 265.056 312.312 264.512 312.152 263.744C311.992 263.168 312.056 262.464 312.344 261.632C312.76 260.448 313.624 259.056 314.936 257.456C315.16 257.232 315.416 257.12 315.704 257.12Z" fill="black"/>
</svg>
