<svg width="1440" height="1024" viewBox="0 0 1440 1024" fill="none" xmlns="http://www.w3.org/2000/svg">
<rect width="1440" height="1024" fill="#E5E5E5"/>
<path d="M1440 0H0V1024H1440V0Z" fill="white"/>
<path d="M279.696 258.944C279.536 259.168 279.328 259.312 279.072 259.376C278.816 259.408 278.576 259.344 278.352 259.184C278.128 259.024 277.984 258.816 277.92 258.56C277.856 258.304 277.904 258.064 278.064 257.84C279.024 256.4 279.456 255.44 279.36 254.96C279.328 254.864 279.104 254.864 278.688 254.96C277.824 255.088 276.928 255.504 276 256.208C275.264 256.752 274.704 257.344 274.32 257.984C273.936 258.624 273.872 259.232 274.128 259.808C274.384 260.48 275.136 261.648 276.384 263.312L276.624 263.552C278.352 262.848 280.144 262.144 282 261.44C283.888 260.704 285.312 260.16 286.272 259.808C287.232 259.456 287.76 259.264 287.856 259.232C288.112 259.136 288.352 259.152 288.576 259.28C288.832 259.408 289.008 259.6 289.104 259.856C289.2 260.112 289.184 260.368 289.056 260.624C288.928 260.848 288.736 261.008 288.48 261.104C288.48 261.104 288.416 261.136 288.288 261.2C288.16 261.232 287.968 261.296 287.712 261.392C287.488 261.456 287.216 261.552 286.896 261.68C286.576 261.808 286.208 261.952 285.792 262.112C285.376 262.24 284.928 262.4 284.448 262.592C283.968 262.752 283.456 262.944 282.912 263.168C282.368 263.36 281.824 263.568 281.28 263.792C280.736 263.984 280.16 264.208 279.552 264.464C278.944 264.688 278.352 264.928 277.776 265.184C278.864 266.752 279.408 268.064 279.408 269.12C279.44 270.016 279.184 270.768 278.64 271.376C278.128 272.016 277.088 272.544 275.52 272.96C273.984 273.376 271.936 273.584 269.376 273.584C258.88 273.584 260.272 270.704 273.552 264.944C274.032 264.72 274.544 264.496 275.088 264.272C274.864 263.984 274.512 263.584 274.032 263.072C273.584 262.528 273.216 262.064 272.928 261.68C272.64 261.264 272.416 260.88 272.256 260.528C271.872 259.472 271.936 258.432 272.448 257.408C272.96 256.352 273.76 255.424 274.848 254.624C276.032 253.728 277.2 253.184 278.352 252.992C280.016 252.704 280.992 253.216 281.28 254.528C281.504 255.584 280.976 257.056 279.696 258.944ZM277.44 269.168C277.44 268.432 276.928 267.36 275.904 265.952C270.4 268.256 267.184 269.68 266.256 270.224C264.624 271.216 265.024 271.712 267.456 271.712C267.936 271.68 268.496 271.648 269.136 271.616C272.304 271.392 274.48 271.104 275.664 270.752C276.88 270.4 277.472 269.872 277.44 269.168Z" fill="black"/>
</svg>
