<svg width="1440" height="1024" viewBox="0 0 1440 1024" fill="none" xmlns="http://www.w3.org/2000/svg">
<rect width="1440" height="1024" fill="#E5E5E5"/>
<path d="M1440 0H0V1024H1440V0Z" fill="white"/>
<path d="M32 280.616C31.776 280.84 31.504 280.952 31.184 280.952C30.896 280.952 30.64 280.84 30.416 280.616C30.224 280.392 30.128 280.12 30.128 279.8C30.128 279.512 30.24 279.256 30.464 279.032C33.44 276.088 38.672 271.128 46.16 264.152C44.016 264.408 41.728 264.744 39.296 265.16C24.832 267.688 12.32 271.896 1.76002 277.784C1.50402 277.944 1.21602 277.976 0.896017 277.88C0.608017 277.816 0.384017 277.64 0.224017 277.352C0.0960171 277.096 0.0800171 276.824 0.176017 276.536C0.272017 276.248 0.448017 276.024 0.704017 275.864C11.456 269.848 24.208 265.56 38.96 263C42.128 262.456 45.44 261.992 48.896 261.608C71.872 240.296 86.672 228.392 93.296 225.896C95.664 225 97.168 225.384 97.808 227.048C98.16 227.976 98.112 229.384 97.664 231.272C97.216 233.128 96.304 235.56 94.928 238.568C93.584 241.544 92.4 244.04 91.376 246.056C90.384 248.072 88.928 250.92 87.008 254.6C85.344 257.8 84.272 259.88 83.792 260.84C84.432 260.872 85.296 260.936 86.384 261.032C88.784 261.224 90.512 261.544 91.568 261.992C92.624 262.44 93.12 263.016 93.056 263.72C93.024 264.072 92.832 264.424 92.48 264.776C92.16 265.128 91.616 265.496 90.848 265.88C90.08 266.264 89.408 266.568 88.832 266.792C88.256 267.048 87.392 267.4 86.24 267.848C83.584 268.872 81.712 269.64 80.624 270.152C79.536 270.696 78.784 270.536 78.368 269.672C77.952 268.872 78.624 266.584 80.384 262.808C70.048 262.296 59.856 262.584 49.808 263.672C41.488 271.448 35.552 277.096 32 280.616ZM94.064 227.912C87.888 230.28 74.032 241.384 52.496 261.224C62.096 260.328 71.744 260.136 81.44 260.648C82.08 259.4 83.296 257.048 85.088 253.592C86.304 251.256 87.232 249.464 87.872 248.216C88.512 246.968 89.36 245.272 90.416 243.128C91.504 240.952 92.336 239.208 92.912 237.896C93.488 236.584 94.064 235.176 94.64 233.672C95.248 232.168 95.632 230.952 95.792 230.024C95.952 229.064 95.936 228.344 95.744 227.864C95.616 227.512 95.056 227.528 94.064 227.912ZM82.688 262.952C81.504 265.352 80.768 266.984 80.48 267.848C81.504 267.368 83.152 266.68 85.424 265.784C89.04 264.408 90.848 263.672 90.848 263.576C90.848 263.544 90.72 263.528 90.464 263.528C90.208 263.496 89.664 263.464 88.832 263.432C88.032 263.368 87.152 263.288 86.192 263.192C85.2 263.096 84.032 263.016 82.688 262.952Z" fill="black"/>
</svg>
