<svg width="1440" height="1024" viewBox="0 0 1440 1024" fill="none" xmlns="http://www.w3.org/2000/svg">
<rect width="1440" height="1024" fill="#E5E5E5"/>
<path d="M1440 0H0V1024H1440V0Z" fill="white"/>
<path d="M96.918 257.858C96.982 257.602 97.126 257.41 97.35 257.282C97.606 257.154 97.862 257.138 98.118 257.234C98.406 257.33 98.598 257.506 98.694 257.762C98.822 257.986 98.854 258.226 98.79 258.482C97.158 263.57 96.646 266.626 97.254 267.65C97.414 267.906 97.654 267.986 97.974 267.89C98.646 267.698 99.638 266.962 100.95 265.682C102.262 264.37 103.638 262.786 105.078 260.93C104.182 260.098 103.526 259.058 103.11 257.81C102.694 256.498 102.598 255.17 102.822 253.826C103.078 252.258 103.75 250.866 104.838 249.65C105.926 248.434 107.366 247.602 109.158 247.154C110.726 246.77 111.878 246.914 112.614 247.586C113.35 248.29 113.542 249.378 113.19 250.85C112.934 251.938 112.374 253.282 111.51 254.882C110.582 256.578 109.366 258.45 107.862 260.498C109.718 261.298 111.958 261.138 114.582 260.018C114.838 259.922 115.094 259.922 115.35 260.018C115.606 260.114 115.782 260.29 115.878 260.546C115.974 260.802 115.974 261.058 115.878 261.314C115.782 261.538 115.606 261.714 115.35 261.842C111.958 263.282 109.062 263.362 106.662 262.082C105.062 264.098 103.494 265.826 101.958 267.266C100.454 268.706 99.302 269.538 98.502 269.762C97.126 270.178 96.198 269.826 95.718 268.706C95.238 267.586 95.142 266.162 95.43 264.434C95.718 262.674 96.006 261.218 96.294 260.066C96.582 258.882 96.79 258.146 96.918 257.858ZM106.278 259.394C107.718 257.41 108.886 255.586 109.782 253.922C110.55 252.514 111.046 251.346 111.27 250.418C111.462 249.682 111.462 249.218 111.27 249.026C111.046 248.834 110.502 248.85 109.638 249.074C108.262 249.426 107.158 250.066 106.326 250.994C105.494 251.922 104.982 252.978 104.79 254.162C104.598 255.186 104.662 256.194 104.982 257.186C105.27 258.05 105.702 258.786 106.278 259.394Z" fill="black"/>
</svg>
