<svg width="148" height="85" viewBox="0 0 148 85" fill="none" xmlns="http://www.w3.org/2000/svg">
<path d="M47.88 84.384C47.544 84.72 47.136 84.888 46.656 84.888C46.224 84.888 45.84 84.72 45.504 84.384C45.216 84.048 45.072 83.64 45.072 83.16C45.072 82.728 45.24 82.344 45.576 82.008C50.04 77.592 57.888 70.152 69.12 59.688C65.904 60.072 62.472 60.576 58.824 61.2C37.128 64.992 18.36 71.304 2.52 80.136C2.136 80.376 1.704 80.424 1.224 80.28C0.792 80.184 0.456 79.92 0.216 79.488C0.024 79.104 0 78.696 0.144 78.264C0.288 77.832 0.552 77.496 0.936 77.256C17.064 68.232 36.192 61.8 58.32 57.96C63.072 57.144 68.04 56.448 73.224 55.872C107.688 23.904 129.888 6.048 139.824 2.304C143.376 0.959996 145.632 1.536 146.592 4.032C147.12 5.424 147.048 7.536 146.376 10.368C145.704 13.152 144.336 16.8 142.272 21.312C140.256 25.776 138.48 29.52 136.944 32.544C135.456 35.568 133.272 39.84 130.392 45.36C127.896 50.16 126.288 53.28 125.568 54.72C126.528 54.768 127.824 54.864 129.456 55.008C133.056 55.296 135.648 55.776 137.232 56.448C138.816 57.12 139.56 57.984 139.464 59.04C139.416 59.568 139.128 60.096 138.6 60.624C138.12 61.152 137.304 61.704 136.152 62.28C135 62.856 133.992 63.312 133.128 63.648C132.264 64.032 130.968 64.56 129.24 65.232C125.256 66.768 122.448 67.92 120.816 68.688C119.184 69.504 118.056 69.264 117.432 67.968C116.808 66.768 117.816 63.336 120.456 57.672C104.952 56.904 89.664 57.336 74.592 58.968C62.112 70.632 53.208 79.104 47.88 84.384ZM140.976 5.328C131.712 8.88 110.928 25.536 78.624 55.296C93.024 53.952 107.496 53.664 122.04 54.432C123 52.56 124.824 49.032 127.512 43.848C129.336 40.344 130.728 37.656 131.688 35.784C132.648 33.912 133.92 31.368 135.504 28.152C137.136 24.888 138.384 22.272 139.248 20.304C140.112 18.336 140.976 16.224 141.84 13.968C142.752 11.712 143.328 9.888 143.568 8.496C143.808 7.056 143.784 5.976 143.496 5.256C143.304 4.728 142.464 4.752 140.976 5.328ZM123.912 57.888C122.136 61.488 121.032 63.936 120.6 65.232C122.136 64.512 124.608 63.48 128.016 62.136C133.44 60.072 136.152 58.968 136.152 58.824C136.152 58.776 135.96 58.752 135.576 58.752C135.192 58.704 134.376 58.656 133.128 58.608C131.928 58.512 130.608 58.392 129.168 58.248C127.68 58.104 125.928 57.984 123.912 57.888Z" fill="black"/>
</svg>
