<svg width="1440" height="1024" viewBox="0 0 1440 1024" fill="none" xmlns="http://www.w3.org/2000/svg">
<path d="M1440 0H0V1024H1440V0Z" fill="white"/>
<path d="M90.918 274.858C90.982 274.602 91.126 274.41 91.35 274.282C91.606 274.154 91.862 274.138 92.118 274.234C92.406 274.33 92.598 274.506 92.694 274.762C92.822 274.986 92.854 275.226 92.79 275.482C91.158 280.57 90.646 283.626 91.254 284.65C91.414 284.906 91.654 284.986 91.974 284.89C92.646 284.698 93.638 283.962 94.95 282.682C96.262 281.37 97.638 279.786 99.078 277.93C98.182 277.098 97.526 276.058 97.11 274.81C96.694 273.498 96.598 272.17 96.822 270.826C97.078 269.258 97.75 267.866 98.838 266.65C99.926 265.434 101.366 264.602 103.158 264.154C104.726 263.77 105.878 263.914 106.614 264.586C107.35 265.29 107.542 266.378 107.19 267.85C106.934 268.938 106.374 270.282 105.51 271.882C104.582 273.578 103.366 275.45 101.862 277.498C103.718 278.298 105.958 278.138 108.582 277.018C108.838 276.922 109.094 276.922 109.35 277.018C109.606 277.114 109.782 277.29 109.878 277.546C109.974 277.802 109.974 278.058 109.878 278.314C109.782 278.538 109.606 278.714 109.35 278.842C105.958 280.282 103.062 280.362 100.662 279.082C99.062 281.098 97.494 282.826 95.958 284.266C94.454 285.706 93.302 286.538 92.502 286.762C91.126 287.178 90.198 286.826 89.718 285.706C89.238 284.586 89.142 283.162 89.43 281.434C89.718 279.674 90.006 278.218 90.294 277.066C90.582 275.882 90.79 275.146 90.918 274.858ZM100.278 276.394C101.718 274.41 102.886 272.586 103.782 270.922C104.55 269.514 105.046 268.346 105.27 267.418C105.462 266.682 105.462 266.218 105.27 266.026C105.046 265.834 104.502 265.85 103.638 266.074C102.262 266.426 101.158 267.066 100.326 267.994C99.494 268.922 98.982 269.978 98.79 271.162C98.598 272.186 98.662 273.194 98.982 274.186C99.27 275.05 99.702 275.786 100.278 276.394Z" fill="black"/>
</svg>
