<svg width="1440" height="1024" viewBox="0 0 1440 1024" fill="none" xmlns="http://www.w3.org/2000/svg">
<rect width="1440" height="1024" fill="#E5E5E5"/>
<path d="M1440 0H0V1024H1440V0Z" fill="white"/>
<path d="M249.08 258.944C249.176 259.072 249.24 259.216 249.272 259.376C250.136 258.384 250.568 257.84 250.568 257.744C250.728 257.52 250.936 257.392 251.192 257.36C251.48 257.296 251.736 257.328 251.96 257.456C252.28 257.712 252.424 258.032 252.392 258.416C251.88 262.16 251.704 264.032 251.864 264.032C252.12 264.064 253.224 263.52 255.176 262.4C257.512 261.056 259.48 260 261.08 259.232C261.304 259.104 261.544 259.088 261.8 259.184C262.088 259.28 262.28 259.456 262.376 259.712C262.504 259.936 262.52 260.176 262.424 260.432C262.328 260.688 262.168 260.88 261.944 261.008C260.44 261.744 258.52 262.768 256.184 264.08C255.288 264.624 254.632 265.008 254.216 265.232C253.8 265.456 253.336 265.648 252.824 265.808C252.344 265.968 251.944 266.032 251.624 266C250.92 265.904 250.44 265.504 250.184 264.8C249.96 264.096 249.912 262.976 250.04 261.44C247.384 264.16 244.712 265.664 242.024 265.952C240.328 266.112 239.4 265.488 239.24 264.08C239.176 263.216 239.512 262.24 240.248 261.152C240.92 260.128 241.736 259.264 242.696 258.56C243.464 258.016 244.2 257.648 244.904 257.456C245.64 257.232 246.376 257.232 247.112 257.456C247.88 257.68 248.536 258.176 249.08 258.944ZM248.168 260.528C247.912 260.496 247.688 260.352 247.496 260.096C246.696 258.976 245.48 258.992 243.848 260.144C243.08 260.72 242.424 261.408 241.88 262.208C241.4 262.944 241.176 263.504 241.208 263.888C241.24 263.984 241.448 264.016 241.832 263.984C243.912 263.76 246.024 262.608 248.168 260.528Z" fill="black"/>
</svg>
