<svg width="1440" height="1024" viewBox="0 0 1440 1024" fill="none" xmlns="http://www.w3.org/2000/svg">
<rect width="1440" height="1024" fill="#E5E5E5"/>
<path d="M1440 0H0V1024H1440V0Z" fill="white"/>
<path d="M135.696 258.944C135.536 259.168 135.328 259.312 135.072 259.376C134.816 259.408 134.576 259.344 134.352 259.184C134.128 259.024 133.984 258.816 133.92 258.56C133.856 258.304 133.904 258.064 134.064 257.84C135.024 256.4 135.456 255.44 135.36 254.96C135.328 254.864 135.104 254.864 134.688 254.96C133.824 255.088 132.928 255.504 132 256.208C131.264 256.752 130.704 257.344 130.32 257.984C129.936 258.624 129.872 259.232 130.128 259.808C130.384 260.48 131.136 261.648 132.384 263.312L132.624 263.552C134.352 262.848 136.144 262.144 138 261.44C139.888 260.704 141.312 260.16 142.272 259.808C143.232 259.456 143.76 259.264 143.856 259.232C144.112 259.136 144.352 259.152 144.576 259.28C144.832 259.408 145.008 259.6 145.104 259.856C145.2 260.112 145.184 260.368 145.056 260.624C144.928 260.848 144.736 261.008 144.48 261.104C144.48 261.104 144.416 261.136 144.288 261.2C144.16 261.232 143.968 261.296 143.712 261.392C143.488 261.456 143.216 261.552 142.896 261.68C142.576 261.808 142.208 261.952 141.792 262.112C141.376 262.24 140.928 262.4 140.448 262.592C139.968 262.752 139.456 262.944 138.912 263.168C138.368 263.36 137.824 263.568 137.28 263.792C136.736 263.984 136.16 264.208 135.552 264.464C134.944 264.688 134.352 264.928 133.776 265.184C134.864 266.752 135.408 268.064 135.408 269.12C135.44 270.016 135.184 270.768 134.64 271.376C134.128 272.016 133.088 272.544 131.52 272.96C129.984 273.376 127.936 273.584 125.376 273.584C114.88 273.584 116.272 270.704 129.552 264.944C130.032 264.72 130.544 264.496 131.088 264.272C130.864 263.984 130.512 263.584 130.032 263.072C129.584 262.528 129.216 262.064 128.928 261.68C128.64 261.264 128.416 260.88 128.256 260.528C127.872 259.472 127.936 258.432 128.448 257.408C128.96 256.352 129.76 255.424 130.848 254.624C132.032 253.728 133.2 253.184 134.352 252.992C136.016 252.704 136.992 253.216 137.28 254.528C137.504 255.584 136.976 257.056 135.696 258.944ZM133.44 269.168C133.44 268.432 132.928 267.36 131.904 265.952C126.4 268.256 123.184 269.68 122.256 270.224C120.624 271.216 121.024 271.712 123.456 271.712C123.936 271.68 124.496 271.648 125.136 271.616C128.304 271.392 130.48 271.104 131.664 270.752C132.88 270.4 133.472 269.872 133.44 269.168Z" fill="black"/>
</svg>
