<svg width="1440" height="1024" viewBox="0 0 1440 1024" fill="none" xmlns="http://www.w3.org/2000/svg">
<rect width="1440" height="1024" fill="#E5E5E5"/>
<path d="M1440 0H0V1024H1440V0Z" fill="white"/>
<path d="M121.882 250.576C122.394 250.544 122.714 250.8 122.842 251.344C122.906 251.6 122.858 251.84 122.698 252.064C122.57 252.288 122.378 252.432 122.122 252.496C121.642 252.592 121.162 252.928 120.682 253.504C120.202 254.048 119.834 254.544 119.578 254.992C119.322 255.44 119.194 255.696 119.194 255.76C119.066 255.984 118.874 256.144 118.618 256.24C118.362 256.336 118.106 256.336 117.85 256.24C117.626 256.112 117.466 255.92 117.37 255.664C117.274 255.408 117.29 255.152 117.418 254.896C117.514 254.736 117.594 254.592 117.658 254.464C117.722 254.336 117.898 254.032 118.186 253.552C118.506 253.072 118.81 252.672 119.098 252.352C119.418 252 119.802 251.648 120.25 251.296C120.73 250.912 121.194 250.672 121.642 250.576C121.706 250.576 121.786 250.576 121.882 250.576ZM117.034 257.68C117.29 257.68 117.498 257.744 117.658 257.872C117.882 258.064 117.994 258.304 117.994 258.592C118.026 258.848 117.962 259.072 117.802 259.264C116.618 260.672 115.866 261.872 115.546 262.864C115.386 263.28 115.338 263.616 115.402 263.872C115.434 264 115.514 264.096 115.642 264.16C115.834 264.256 116.138 264.304 116.554 264.304C117.61 264.304 119.258 263.872 121.498 263.008C124.57 261.856 126.762 260.816 128.074 259.888C128.266 259.728 128.49 259.68 128.746 259.744C129.034 259.776 129.258 259.904 129.418 260.128C129.578 260.352 129.626 260.592 129.562 260.848C129.53 261.104 129.402 261.312 129.178 261.472C128.666 261.856 127.722 262.384 126.346 263.056C124.97 263.728 123.578 264.336 122.17 264.88C119.706 265.808 117.834 266.272 116.554 266.272C115.882 266.272 115.29 266.16 114.778 265.936C114.074 265.616 113.642 265.072 113.482 264.304C113.322 263.728 113.386 263.024 113.674 262.192C114.09 261.008 114.954 259.616 116.266 258.016C116.49 257.792 116.746 257.68 117.034 257.68Z" fill="black"/>
</svg>
