<svg width="1440" height="1024" viewBox="0 0 1440 1024" fill="none" xmlns="http://www.w3.org/2000/svg">
<rect width="1440" height="1024" fill="#E5E5E5"/>
<path d="M1440 0H0V1024H1440V0Z" fill="white"/>
<path d="M313.272 259.136C313.528 259.072 313.768 259.104 313.992 259.232C314.248 259.36 314.408 259.568 314.472 259.856C314.536 260.112 314.488 260.352 314.328 260.576C314.2 260.8 314.008 260.944 313.752 261.008C313.4 261.072 312.312 261.344 310.488 261.824C308.696 262.304 306.488 262.96 303.864 263.792C301.24 264.624 299.432 265.344 298.44 265.952C297.064 266.784 296.168 266.848 295.752 266.144C295.528 265.792 295.576 265.152 295.896 264.224C296.6 262.176 296.696 260.528 296.184 259.28C295.96 258.704 295.32 258.928 294.264 259.952C293.208 260.944 291.976 262.432 290.568 264.416C289.16 266.368 288.104 267.84 287.4 268.832C286.728 269.824 286.152 270.688 285.672 271.424V271.472C285.544 271.696 285.336 271.824 285.048 271.856C284.792 271.92 284.552 271.888 284.328 271.76C283.912 271.472 283.784 271.088 283.944 270.608H283.896C287.832 258.224 291.304 248.32 294.312 240.896C297.352 233.472 299.864 228.304 301.848 225.392C302.584 224.304 303.272 223.504 303.912 222.992C304.584 222.48 305.16 222.256 305.64 222.32C306.12 222.384 306.536 222.704 306.888 223.28C307.592 224.4 307.592 226.704 306.888 230.192C306.44 232.432 305.736 234.832 304.776 237.392C303.848 239.952 302.664 242.64 301.224 245.456C299.816 248.24 298.056 250.992 295.944 253.712C293.864 256.4 291.624 258.704 289.224 260.624C288.904 261.552 288.408 263.056 287.736 265.136C290.04 262.096 292.152 259.824 294.072 258.32C295.992 256.784 297.304 256.864 298.008 258.56C298.648 260.128 298.664 261.92 298.056 263.936C299.304 263.296 301.224 262.576 303.816 261.776C306.44 260.944 308.6 260.304 310.296 259.856C311.992 259.408 312.984 259.168 313.272 259.136ZM303.432 226.496C300.104 231.392 295.8 241.52 290.52 256.88C293.048 254.384 295.368 251.424 297.48 248C299.592 244.544 301.224 241.312 302.376 238.304C303.56 235.296 304.424 232.464 304.968 229.808C305.576 226.864 305.656 225.024 305.208 224.288C305.112 224.16 304.52 224.896 303.432 226.496Z" fill="black"/>
</svg>
